<?xml version="1.0" encoding="UTF-8"?>
<svg id="Isotipo" xmlns="http://www.w3.org/2000/svg" version="1.1" xmlns:xlink="http://www.w3.org/1999/xlink" viewBox="0 0 189 162">
  <!-- Generator: Adobe Illustrator 30.3.0, SVG Export Plug-In . SVG Version: 2.1.3 Build 182)  -->
  <defs>
    <style>
      .st0 {
        fill: #fff;
      }

      .st1 {
        fill: url(#Degradado_sin_nombre_13);
      }

      .st2 {
        fill: #0e0e0e;
      }
    </style>
    <linearGradient id="Degradado_sin_nombre_13" data-name="Degradado sin nombre 13" x1="54" y1="81" x2="135" y2="81" gradientUnits="userSpaceOnUse">
      <stop offset=".05" stop-color="#ffd95a"/>
      <stop offset=".5" stop-color="#e63877"/>
      <stop offset=".95" stop-color="#81ceee"/>
    </linearGradient>
  </defs>
  <rect class="st2" y="0" width="189" height="162"/>
  <path class="st0" d="M98.26,107.73c-1.24.18-2.52.27-3.82.27-14.91,0-27-12.09-27-27,0-2.9.46-5.68,1.3-8.29.75-2.32,3.22-3.62,5.56-2.93h0c2.44.72,3.77,3.31,2.99,5.73-.56,1.73-.85,3.58-.85,5.49,0,8.06,5.3,14.88,12.6,17.17,2.34,3.72,5.47,6.99,9.22,9.56Z"/>
  <path class="st0" d="M121.31,78.56c.38,3.87-.05,7.58-1.15,11-.75,2.35-3.22,3.68-5.58,2.98h0c-2.44-.72-3.77-3.31-2.99-5.73.56-1.73.85-3.57.85-5.49,0-8.11-5.36-14.97-12.74-17.22-2.33-3.71-5.4-6.96-9.07-9.51.06,0,.13-.02.19-.03,14.92-2.05,29,9.01,30.48,24Z"/>
  <path class="st1" d="M135,99.02h0c0,4.96-4.08,8.98-9.11,8.98h-8.35c-15.04,0-27.79-11.87-27.59-26.68.12-9.24-6.88-17.06-15.91-18.19-.76-.1-1.53-.15-2.31-.15h-17.72,0c0-4.96,4.08-8.98,9.11-8.98h8.61c4.06,0,7.92.88,11.39,2.46,9.41,4.25,15.95,13.61,15.95,24.46,0,9.9,8.18,18.1,18.23,18.1h17.72Z"/>
</svg>